<?xml version="1.0" standalone="no"?><!DOCTYPE svg PUBLIC "-//W3C//DTD SVG 1.1//EN" "http://www.w3.org/Graphics/SVG/1.1/DTD/svg11.dtd"><svg t="1533872325392" class="icon" style="" viewBox="0 0 1024 1024" version="1.1" xmlns="http://www.w3.org/2000/svg" p-id="11229" xmlns:xlink="http://www.w3.org/1999/xlink" width="200" height="200"><defs><style type="text/css"></style></defs><path d="M706.392 736.659c119.112 26.43 199.473 76.386 199.473 133.655 0 84.866-176.391 153.687-393.864 153.687-217.471 0-393.864-68.821-393.864-153.687 0-57.27 80.36-107.224 199.473-133.655-58.483 19.673-95.222 48.086-95.222 79.687 0 59.387 129.7 107.543 289.613 107.543 159.914 0 289.615-48.156 289.615-107.543 0-31.6-36.74-60.014-95.223-79.687z" p-id="11230" fill="#1296db"></path><path d="M512 0c148.488 0 268.93 120.44 268.93 268.929 0 148.488-256.6 534.48-268.93 534.48-12.33 0-268.929-385.993-268.929-534.48C243.071 120.44 363.511 0 512 0z m0 113.635c85.75 0 155.295 69.545 155.295 155.293 0 85.75-69.544 155.295-155.295 155.295-85.747 0-155.295-69.546-155.295-155.295 0-85.748 69.548-155.293 155.295-155.293z" p-id="11231" fill="#1296db"></path></svg>