<?xml version="1.0" encoding="utf-8"?>
<!-- Generator: Adobe Illustrator 19.0.0, SVG Export Plug-In . SVG Version: 6.00 Build 0)  -->
<svg version="1.1" id="图层_1" xmlns="http://www.w3.org/2000/svg" xmlns:xlink="http://www.w3.org/1999/xlink" x="0px" y="0px"
	 viewBox="85 -80 200 200" style="enable-background:new 85 -80 200 200;" xml:space="preserve">
<style type="text/css">
	.st0{fill:#7B9EB0;}
	.st1{fill:#284954;}
</style>
<g>
	<path class="st0" d="M204.9,87.3h-39.7c-2.6,0-4.7,2.1-4.7,4.7s2.1,4.7,4.7,4.7h39.7c2.6,0,4.7-2.1,4.7-4.7S207.5,87.3,204.9,87.3z
		"/>
	<path class="st0" d="M185-56.7c-32.8,0-59.4,26.7-59.4,59.5c0,25.3,16.2,47.9,39.8,56.2l11.4,17.8c1.8,2.8,4.9,4.5,8.2,4.5
		c3.3,0,6.4-1.7,8.2-4.5l11.5-17.7c23.6-8.3,39.8-30.9,39.8-56.2C244.4-30,217.8-56.7,185-56.7z"/>
</g>
<circle class="st1" cx="185" cy="3.8" r="14.3"/>
</svg>
